<svg width="541" height="757" viewBox="0 0 541 757" fill="none" xmlns="http://www.w3.org/2000/svg">
<circle cx="148" cy="138" r="51.5" fill="white" stroke="#151515" stroke-width="7"/>
<circle cx="396" cy="138" r="51.5" fill="white" stroke="#0D0C0C" stroke-width="7"/>
<circle cx="273" cy="596" r="85.5" fill="white" stroke="#0D0C0C" stroke-width="7"/>
<path d="M301 138H341" stroke="#0D0C0C" stroke-width="3"/>
<line x1="203" y1="136.5" x2="243" y2="136.5" stroke="#0D0C0C" stroke-width="3"/>
<line x1="149.477" y1="192.739" x2="173.477" y2="328.739" stroke="#0D0C0C" stroke-width="3"/>
<line x1="192.477" y1="399.739" x2="216.477" y2="535.739" stroke="#0D0C0C" stroke-width="3"/>
<line x1="396.492" y1="193.087" x2="372.492" y2="329.087" stroke="black"/>
<line x1="354.477" y1="400.261" x2="330.477" y2="536.261" stroke="#0D0C0C" stroke-width="3"/>
<path d="M234.939 756.061C235.525 756.646 236.475 756.646 237.061 756.061L246.607 746.515C247.192 745.929 247.192 744.979 246.607 744.393C246.021 743.808 245.071 743.808 244.485 744.393L236 752.879L227.515 744.393C226.929 743.808 225.979 743.808 225.393 744.393C224.808 744.979 224.808 745.929 225.393 746.515L234.939 756.061ZM236 685H234.5V755H236H237.5V685H236Z" fill="#0D0C0C"/>
<path d="M69.9393 285.061C70.5251 285.646 71.4749 285.646 72.0607 285.061L81.6066 275.515C82.1924 274.929 82.1924 273.979 81.6066 273.393C81.0208 272.808 80.0711 272.808 79.4853 273.393L71 281.879L62.5147 273.393C61.9289 272.808 60.9792 272.808 60.3934 273.393C59.8076 273.979 59.8076 274.929 60.3934 275.515L69.9393 285.061ZM71 214H69.5V284H71H72.5V214H71Z" fill="#0D0C0C"/>
<path d="M405.939 285.061C406.525 285.646 407.475 285.646 408.061 285.061L417.607 275.515C418.192 274.929 418.192 273.979 417.607 273.393C417.021 272.808 416.071 272.808 415.485 273.393L407 281.879L398.515 273.393C397.929 272.808 396.979 272.808 396.393 273.393C395.808 273.979 395.808 274.929 396.393 275.515L405.939 285.061ZM407 214H405.5V284H407H408.5V214H407Z" fill="#0D0C0C"/>
<path d="M367.061 446.939C366.475 446.354 365.525 446.354 364.939 446.939L355.393 456.485C354.808 457.071 354.808 458.021 355.393 458.607C355.979 459.192 356.929 459.192 357.515 458.607L366 450.121L374.485 458.607C375.071 459.192 376.021 459.192 376.607 458.607C377.192 458.021 377.192 457.071 376.607 456.485L367.061 446.939ZM366 518L367.5 518L367.5 448L366 448L364.5 448L364.5 518L366 518Z" fill="#0D0C0C"/>
<path d="M113.061 0.939339C112.475 0.353554 111.525 0.353554 110.939 0.939339L101.393 10.4853C100.808 11.0711 100.808 12.0208 101.393 12.6066C101.979 13.1924 102.929 13.1924 103.515 12.6066L112 4.12132L120.485 12.6066C121.071 13.1924 122.021 13.1924 122.607 12.6066C123.192 12.0208 123.192 11.0711 122.607 10.4853L113.061 0.939339ZM112 72L113.5 72L113.5 2L112 2L110.5 2L110.5 72L112 72Z" fill="#0D0C0C"/>
<path d="M361.061 0.939339C360.475 0.353554 359.525 0.353554 358.939 0.939339L349.393 10.4853C348.808 11.0711 348.808 12.0208 349.393 12.6066C349.979 13.1924 350.929 13.1924 351.515 12.6066L360 4.12132L368.485 12.6066C369.071 13.1924 370.021 13.1924 370.607 12.6066C371.192 12.0208 371.192 11.0711 370.607 10.4853L361.061 0.939339ZM360 72L361.5 72L361.5 2L360 2L358.5 2L358.5 72L360 72Z" fill="#0D0C0C"/>
<path d="M437.061 646.061C437.646 645.475 437.646 644.525 437.061 643.939L427.515 634.393C426.929 633.808 425.979 633.808 425.393 634.393C424.808 634.979 424.808 635.929 425.393 636.515L433.879 645L425.393 653.485C424.808 654.071 424.808 655.021 425.393 655.607C425.979 656.192 426.929 656.192 427.515 655.607L437.061 646.061ZM355 645V646.5H436V645V643.5H355V645Z" fill="#0D0C0C"/>
<path d="M540.061 169.061C540.646 168.475 540.646 167.525 540.061 166.939L530.515 157.393C529.929 156.808 528.979 156.808 528.393 157.393C527.808 157.979 527.808 158.929 528.393 159.515L536.879 168L528.393 176.485C527.808 177.071 527.808 178.021 528.393 178.607C528.979 179.192 529.929 179.192 530.515 178.607L540.061 169.061ZM458 168V169.5L539 169.5V168V166.5L458 166.5V168Z" fill="#0D0C0C"/>
<path d="M106.939 643.939C106.354 644.525 106.354 645.475 106.939 646.061L116.485 655.607C117.071 656.192 118.021 656.192 118.607 655.607C119.192 655.021 119.192 654.071 118.607 653.485L110.121 645L118.607 636.515C119.192 635.929 119.192 634.979 118.607 634.393C118.021 633.808 117.071 633.808 116.485 634.393L106.939 643.939ZM189 645L189 643.5L108 643.5L108 645L108 646.5L189 646.5L189 645Z" fill="#0D0C0C"/>
<path d="M0.939339 166.939C0.353554 167.525 0.353554 168.475 0.939339 169.061L10.4853 178.607C11.0711 179.192 12.0208 179.192 12.6066 178.607C13.1924 178.021 13.1924 177.071 12.6066 176.485L4.12132 168L12.6066 159.515C13.1924 158.929 13.1924 157.979 12.6066 157.393C12.0208 156.808 11.0711 156.808 10.4853 157.393L0.939339 166.939ZM83 168L83 166.5L2 166.5L2 168L2 169.5L83 169.5L83 168Z" fill="#0D0C0C"/>
<line x1="148" y1="399" x2="243" y2="399" stroke="#0D0C0C" stroke-width="2"/>
<line x1="301" y1="399" x2="396" y2="399" stroke="#0D0C0C" stroke-width="2"/>
<rect x="237.5" y="469.5" width="71" height="27" fill="white" stroke="#0D0C0C" stroke-width="3"/>
<rect x="237.5" y="185.5" width="71" height="27" fill="white" stroke="#0D0C0C" stroke-width="3"/>
<line x1="244" y1="154" x2="302" y2="154" stroke="#0D0C0C" stroke-width="2"/>
</svg>
